<?xml version="1.0" standalone="no"?>
<!DOCTYPE svg PUBLIC "-//W3C//DTD SVG 20010904//EN"
 "http://www.w3.org/TR/2001/REC-SVG-20010904/DTD/svg10.dtd">
<svg version="1.0" xmlns="http://www.w3.org/2000/svg"
 width="1536.000000pt" height="1536.000000pt" viewBox="0 0 1536.000000 1536.000000"
 preserveAspectRatio="xMidYMid meet">
<metadata>
Created by potrace 1.14, written by Peter Selinger 2001-2017
</metadata>
<g transform="translate(0.000000,1536.000000) scale(0.100000,-0.100000)"
fill="#000000" stroke="none">
<path d="M2080 15349 c-259 -31 -461 -83 -665 -169 -592 -251 -1073 -759
-1279 -1351 -56 -159 -85 -269 -100 -374 -4 -23 -8 -52 -11 -65 -3 -13 -8 -56
-12 -95 -10 -92 -10 -11127 0 -11228 18 -184 85 -458 146 -602 5 -11 19 -45
32 -75 36 -86 117 -238 167 -315 130 -201 331 -425 502 -562 288 -231 636
-397 970 -462 30 -6 66 -14 80 -16 14 -3 48 -8 75 -11 28 -4 73 -10 100 -15
69 -11 11101 -10 11190 1 144 19 160 21 229 36 303 62 556 166 809 331 258
168 535 448 689 696 127 205 237 459 284 656 23 99 24 102 34 156 17 89 20
109 27 185 11 100 10 11169 0 11240 -32 223 -89 451 -146 585 -5 11 -19 45
-32 75 -105 246 -276 497 -479 701 -131 132 -219 205 -370 307 -235 157 -524
279 -790 331 -30 6 -66 14 -80 16 -14 3 -47 8 -75 11 -27 4 -72 10 -100 15
-64 10 -11108 9 -11195 -2z"/>
</g>
</svg>
